<?xml version="1.0" standalone="no"?>
<!DOCTYPE svg PUBLIC "-//W3C//DTD SVG 20010904//EN"
 "http://www.w3.org/TR/2001/REC-SVG-20010904/DTD/svg10.dtd">
<svg version="1.0" xmlns="http://www.w3.org/2000/svg"
 width="666.000000pt" height="375.000000pt" viewBox="0 0 666.000000 375.000000"
 preserveAspectRatio="xMidYMid meet">

<g transform="translate(0.000000,375.000000) scale(0.100000,-0.100000)"
fill="#000000" stroke="none">
<path d="M2650 3207 c0 -22 5 -23 123 -35 143 -14 241 -38 369 -90 304 -125
552 -363 692 -665 228 -491 123 -1078 -261 -1459 -229 -228 -481 -347 -801
-381 -106 -11 -117 -14 -117 -32 0 -66 375 6 592 113 330 163 586 460 696 809
81 257 81 559 0 816 -133 422 -470 757 -893 887 -109 34 -258 60 -342 60 -54
0 -58 -2 -58 -23z"/>
</g>
</svg>
